HIERARCHY
ROOT root
{
	OFFSET	0	13.1	24.9
	CHANNELS 6  Xposition Yposition Zposition Xrotation Yrotation Zrotation
	JOINT spine_1
	{
		OFFSET	0	9.99999	0
		CHANNELS 3  Xrotation Yrotation Zrotation
		JOINT spine_2
		{
			OFFSET	0	112	-10
			CHANNELS 3  Xrotation Yrotation Zrotation
			JOINT spine_3
			{
				OFFSET	0	206.5	19.3
				CHANNELS 3  Xrotation Yrotation Zrotation
				JOINT spine_4
				{
					OFFSET	0	110.4	14.6
					CHANNELS 3  Xrotation Yrotation Zrotation
					JOINT neck_1
					{
						OFFSET	0	71.8	-50.3
						CHANNELS 3  Xrotation Yrotation Zrotation
						JOINT neck_2
						{
							OFFSET	0	86.2	-25.8
							CHANNELS 3  Xrotation Yrotation Zrotation
							JOINT head_ee
							{
								OFFSET	0	179.8	-8.7
								CHANNELS 3  Xrotation Yrotation Zrotation
								End Site
								{
									OFFSET	1	0	0
								}
							}
						}
					}
					JOINT left_clavicle
					{
						OFFSET	-43.2	22.4	-70.8
						CHANNELS 3  Xrotation Yrotation Zrotation
						JOINT left_shoulder
						{
							OFFSET	-93.9	-5.79999	48.7
							CHANNELS 3  Xrotation Yrotation Zrotation
							JOINT left_elbow
							{
								OFFSET	-291.4	-30.8	15.2
								CHANNELS 3  Xrotation Yrotation Zrotation
								JOINT left_lowarm_twist
								{
									OFFSET	-110.7	-3.89999	13.6
									CHANNELS 3  Xrotation Yrotation Zrotation
									JOINT left_hand
									{
										OFFSET	-110.7	-3.89999	13.6
										CHANNELS 3  Xrotation Yrotation Zrotation
										JOINT left_ee
										{
											OFFSET	-80.8	-5.10001	12.1
											CHANNELS 3  Xrotation Yrotation Zrotation
											End Site
											{
												OFFSET	1	0	0
											}
										}
									}
								}
							}
						}
					}
					JOINT right_clavicle
					{
						OFFSET	43.2	22.4	-70.8
						CHANNELS 3  Xrotation Yrotation Zrotation
						JOINT right_shoulder
						{
							OFFSET	93.9	-5.79999	48.7
							CHANNELS 3  Xrotation Yrotation Zrotation
							JOINT right_elbow
							{
								OFFSET	291.4	-30.8	15.2
								CHANNELS 3  Xrotation Yrotation Zrotation
								JOINT right_lowarm_twist
								{
									OFFSET	110.7	-3.89999	13.6
									CHANNELS 3  Xrotation Yrotation Zrotation
									JOINT right_hand
									{
										OFFSET	110.7	-3.89999	13.6
										CHANNELS 3  Xrotation Yrotation Zrotation
										JOINT right_ee
										{
											OFFSET	80.8	-5.10001	12.1
											CHANNELS 3  Xrotation Yrotation Zrotation
											End Site
											{
												OFFSET	1	0	0
											}
										}
									}
								}
							}
						}
					}
				}
			}
		}
	}
	JOINT left_hip
	{
		OFFSET	-82.8	-127.5	0.300001
		CHANNELS 3  Xrotation Yrotation Zrotation
		JOINT left_knee
		{
			OFFSET	-28.2	-396.7	2.2
			CHANNELS 3  Xrotation Yrotation Zrotation
			JOINT left_ankle
			{
				OFFSET	-11.7	-411.3	35.4
				CHANNELS 3  Xrotation Yrotation Zrotation
				JOINT left_toes
				{
					OFFSET	0	-60	-88.6
					CHANNELS 3  Xrotation Yrotation Zrotation
					JOINT left_foot_ee
					{
						OFFSET	-22.5	-16.5	-42.2
						CHANNELS 3  Xrotation Yrotation Zrotation
						End Site
						{
							OFFSET	1	0	0
						}
					}
				}
			}
		}
	}
	JOINT right_hip
	{
		OFFSET	82.8	-127.5	0.300001
		CHANNELS 3  Xrotation Yrotation Zrotation
		JOINT right_knee
		{
			OFFSET	28.2	-396.7	2.2
			CHANNELS 3  Xrotation Yrotation Zrotation
			JOINT right_ankle
			{
				OFFSET	11.7	-411.3	35.4
				CHANNELS 3  Xrotation Yrotation Zrotation
				JOINT right_toes
				{
					OFFSET	0	-60	-88.6
					CHANNELS 3  Xrotation Yrotation Zrotation
					JOINT right_foot_ee
					{
						OFFSET	22.5	-16.5	-42.2
						CHANNELS 3  Xrotation Yrotation Zrotation
						End Site
						{
							OFFSET	1	0	0
						}
					}
				}
			}
		}
	}
}
MOTION
Frames: 13
Frame Time: 0.02
870.123 687.783 -471.809 29.2512 -68.4933 33.5604 -7.02269 0.0367159 -2.98917 -7.01774 0.226765 -2.98079 -7.02039 1.19319 -2.74115 -7.03011 0.745499 -2.89503 -0.308436 -3.58721 4.01001 -0.173696 -9.66758 3.91625 -0.0 0.0 -0.0 6.65669 -7.90274 12.7468 -11.4499 6.61812 68.0029 0.199081 -5.63238 0.00979314 -59.1656 -5.17917 5.07445 2.98067 22.8006 27.5619 -0.0 0.0 -0.0 4.62729 -6.54571 -9.13289 25.9283 37.9285 -55.4815 3.67092 61.1771 -2.17047 34.6264 0.0996564 4.35559 -4.13521 -10.9555 22.4349 0.0 0.0 0.0 26.7503 52.9526 -3.77303 -8.13465 0.248474 1.22265 12.4618 -19.7354 -1.97808 -39.7417 0.0 0.0 -0.0 0.0 -0.0 -36.7425 14.7875 -20.0714 6.80279 0.33928 0.987794 4.29926 -11.1056 0.622945 -37.0634 0.0 0.0 0.0 0.0 0.0 
896.86 688.514 -480.089 31.218 -68.7759 35.4349 -6.82894 -0.0318193 -2.99719 -6.82396 0.158877 -2.99315 -6.82286 1.12349 -2.77902 -6.83301 0.670694 -2.92142 0.438525 -4.82524 5.40041 0.701061 -13.0093 5.38685 -0.0 0.0 -0.0 6.93141 -8.03614 13.3165 -10.3865 5.67434 68.2035 0.189429 -5.36092 0.00886847 -60.4464 -5.33832 5.11486 1.86453 20.753 19.78 -0.0 0.0 -0.0 4.58762 -8.40333 -9.09683 23.2981 38.6489 -55.7582 3.68581 61.2748 -2.18352 36.2753 0.169835 4.55434 -4.31389 -15.0624 21.089 0.0 0.0 0.0 31.2853 53.4396 -10.1527 -17.1665 0.318609 2.60526 18.5109 -16.2207 -2.77311 -40.132 0.0 0.0 -0.0 0.0 -0.0 -39.8408 14.2792 -18.5025 8.07718 0.415796 1.16811 4.98536 -13.2661 0.722862 -39.0727 0.0 0.0 0.0 0.0 0.0 
919.33 689.373 -485.868 31.0973 -68.8709 35.0908 -6.57479 -0.101613 -2.94835 -6.56996 0.0861206 -2.94884 -6.56518 1.02774 -2.76544 -6.57539 0.57829 -2.89291 -1.48981 -4.97014 4.12062 -1.32671 -12.2338 3.75491 -0.0 0.0 -0.0 7.35901 -7.986 14.215 -8.94671 4.74519 67.7682 0.166807 -4.72382 0.0068802 -60.3721 -5.32907 5.11261 0.924213 17.3569 12.7804 -0.0 0.0 -0.0 4.01232 -8.88886 -8.08712 21.4146 39.9171 -56.0682 3.14634 57.3034 -1.71943 38.5819 0.277566 4.82888 -4.40338 -18.6363 19.3624 0.0 0.0 0.0 29.5132 53.2617 -9.613 -16.8841 0.319721 2.56195 21.5653 -18.4569 -3.23524 -38.6282 0.0 0.0 -0.0 0.0 -0.0 -40.4105 13.0018 -17.7746 7.11445 0.357621 1.03204 3.47155 -15.8135 0.507943 -40.1387 0.0 0.0 0.0 0.0 0.0 
944.235 695.465 -497.152 32.9611 -69.2751 36.5782 -6.30372 -0.405872 -2.76764 -6.29949 -0.229007 -2.78784 -6.27914 0.663648 -2.71742 -6.28937 0.226329 -2.78806 -2.22358 -4.16518 4.01341 -2.09846 -10.6978 3.66223 -0.0 0.0 -0.0 7.85742 -7.96419 15.2654 -8.35385 3.86189 67.9062 0.152979 -4.33377 0.00578824 -60.2735 -5.31679 5.10961 -0.16876 13.2788 4.3969 -0.0 0.0 -0.0 3.51996 -9.04987 -7.22529 19.865 41.6808 -57.5876 2.53426 51.4522 -1.22123 41.1209 0.408847 5.12586 -4.51857 -21.2416 18.3622 0.0 0.0 0.0 25.6392 53.5357 -7.57939 -15.4332 0.322068 2.33935 24.0797 -19.3551 -3.58745 -35.0381 0.0 0.0 -0.0 0.0 -0.0 -37.4326 11.6742 -17.2242 -3.68237 -0.134003 -0.549146 5.51741 -16.544 0.804219 -39.9793 0.0 0.0 0.0 0.0 0.0 
966.373 698.94 -508.938 34.3726 -70.0989 38.3808 -5.99631 -0.289963 -2.67616 -5.99233 -0.119147 -2.68917 -5.97883 0.723183 -2.59291 -5.98808 0.30476 -2.67451 -2.84143 -4.34175 2.95426 -2.7569 -10.188 2.46509 -0.0 0.0 -0.0 8.31191 -8.17346 16.2236 -6.45166 3.28031 67.8436 0.172809 -4.89297 0.00738329 -60.8391 -5.38729 5.12654 -0.528796 13.3419 2.16169 -0.0 0.0 -0.0 2.29255 -7.12416 -4.94432 16.858 41.3192 -58.1395 2.25419 48.1481 -1.00722 43.5263 0.545272 5.40166 -4.33206 -22.7843 16.1859 0.0 0.0 0.0 25.612 53.005 -9.43731 -17.1382 0.31873 2.60092 25.9547 -22.4191 -3.93005 -33.6732 0.0 0.0 -0.0 0.0 -0.0 -32.7522 8.0056 -16.1711 -19.039 -0.305835 -2.89227 8.17098 -19.8922 1.19417 -39.8098 0.0 0.0 0.0 0.0 0.0 
995.279 703.222 -514.452 33.509 -70.6289 38.0497 -5.6084 -0.226633 -2.65127 -5.60449 -0.0575279 -2.66031 -5.59464 0.755713 -2.55144 -5.60356 0.343426 -2.63869 -3.3661 -3.70298 2.78567 -3.30278 -8.89891 2.33572 -0.0 0.0 -0.0 8.62468 -8.51895 16.8834 -4.56088 2.55532 67.8467 0.229429 -6.48413 0.0129961 -61.4133 -5.45902 5.143 -0.995051 13.0923 -0.870187 -0.0 0.0 -0.0 0.719785 -5.41275 -1.95586 13.6691 41.1012 -60.2989 1.67759 39.7243 -0.606065 46.7981 0.749236 5.76725 -4.23837 -24.7466 14.3371 0.0 0.0 0.0 22.3843 53.4017 -8.88192 -13.2187 0.314785 1.99968 27.1555 -24.4071 -4.16187 -32.2491 0.0 0.0 -0.0 0.0 -0.0 -27.7478 4.74241 -14.812 -37.7838 0.331826 -5.68551 14.1486 -20.6177 2.03269 -40.2341 0.0 0.0 0.0 0.0 0.0 
1033.51 719.806 -516.86 33.4554 -70.079 39.2104 -5.30245 -0.325846 -2.98835 -5.29749 -0.135117 -3.00302 -5.28136 0.770402 -2.90574 -5.29301 0.302043 -2.99085 -3.5438 -2.63219 3.60213 -3.47449 -7.57794 3.3299 -0.0 0.0 -0.0 8.75693 -8.56634 17.1653 -4.13906 2.02243 67.692 0.341726 -9.60821 0.0287203 -62.5 -5.5952 5.17218 -1.09017 12.6237 -1.67532 -0.0 0.0 -0.0 0.551141 -7.58644 -1.88001 8.78169 41.4118 -60.8601 1.47279 36.1113 -0.480144 48.194 0.842573 5.91961 -3.74954 -21.2297 13.6355 0.0 0.0 0.0 18.6392 53.4428 -9.88395 -7.82552 0.242221 1.17563 27.0284 -29.0126 -4.36791 -30.5195 0.0 0.0 -0.0 0.0 -0.0 -13.2811 0.419933 -9.09081 -65.8894 2.86835 -9.14085 18.9196 -19.5856 2.65739 -39.3483 0.0 0.0 0.0 0.0 0.0 
1054.54 721.146 -522.093 33.416 -71.1879 39.5669 -5.08196 -0.330191 -3.07821 -5.0767 -0.133743 -3.09296 -5.06018 0.787132 -2.99421 -5.07256 0.304611 -3.08084 -2.90565 -1.97598 3.67278 -2.83878 -6.45507 3.54531 -0.0 0.0 -0.0 8.62772 -9.20931 16.8765 -1.42263 1.33849 68.2348 0.42494 -11.8876 0.0442417 -62.6496 -5.614 5.176 -1.41865 11.6571 -4.19001 -0.0 0.0 -0.0 0.546991 -5.62879 -1.66403 7.65848 42.1122 -62.1633 1.01606 26.7167 -0.241284 49.8434 0.957619 6.09669 -3.95783 -25.7588 12.0564 0.0 0.0 0.0 17.6069 53.4012 -9.37522 -6.66487 0.21648 0.999379 29.9742 -27.9654 -4.6861 -29.4839 0.0 0.0 -0.0 0.0 -0.0 -11.4631 2.626 -9.43418 -65.3675 2.8066 -9.0891 18.0095 -22.3047 2.56838 -40.1936 0.0 0.0 0.0 0.0 0.0 
1071.79 720.189 -529.578 32.5582 -72.0059 38.6886 -4.74539 -0.643327 -3.16049 -4.73994 -0.441019 -3.19497 -4.70489 0.503623 -3.18571 -4.71905 -0.00554921 -3.22523 -1.76854 -1.5193 4.70096 -1.66742 -6.48054 4.76892 -0.0 0.0 -0.0 8.45516 -9.32661 16.5044 -0.188286 0.7913 69.1254 0.546364 -15.1446 0.0726322 -63.0216 -5.66074 5.18527 -1.44927 10.4769 -4.928 -0.0 0.0 -0.0 0.243396 -6.53848 -1.21489 7.52609 42.9019 -63.3701 0.895694 23.9266 -0.18979 50.7801 1.02522 6.19577 -3.98727 -26.3291 11.8636 0.0 0.0 0.0 16.5262 53.4136 -8.83003 -6.3849 0.209737 0.956943 30.6407 -29.8312 -4.87619 -27.8528 0.0 0.0 -0.0 0.0 -0.0 -9.17676 2.91645 -8.34344 -67.8069 3.09928 -9.32615 19.6346 -24.5763 2.81395 -39.9077 0.0 0.0 0.0 0.0 0.0 
1088.27 724.424 -525.727 32.1785 -73.8257 38.6593 -4.54705 -0.566965 -3.17479 -4.54151 -0.363903 -3.2044 -4.51118 0.569541 -3.17433 -4.52523 0.0613387 -3.22439 -3.19831 -1.02959 6.6949 -3.03094 -7.07687 6.81493 -0.0 0.0 -0.0 8.06723 -9.72675 15.6648 1.40874 0.17328 69.2305 0.764495 -20.742 0.139913 -63.0102 -5.65932 5.18499 -1.63417 10.5002 -6.10349 -0.0 0.0 -0.0 0.313925 -7.70059 -1.47117 6.37411 42.5392 -64.6205 0.841501 22.6289 -0.168372 51.4043 1.07117 6.26119 -3.84224 -26.5327 10.9119 0.0 0.0 0.0 17.3602 52.4589 -10.4784 -5.8976 0.197505 0.883161 29.5022 -30.6688 -4.78496 -25.923 0.0 0.0 -0.0 0.0 -0.0 -7.53232 2.6421 -9.19305 -65.6319 2.83782 -9.11538 18.4412 -27.6806 2.70516 -40.1941 0.0 0.0 0.0 0.0 0.0 
1105.32 727.679 -529.986 35.0597 -74.9465 41.8324 -4.23676 -0.495696 -3.19531 -4.23112 -0.291474 -3.22034 -4.20535 0.626675 -3.17225 -4.21937 0.118087 -3.23134 -2.96869 0.166429 7.39267 -2.78442 -5.4719 7.73329 -0.0 0.0 -0.0 7.77267 -9.71407 15.0374 3.36555 -0.539273 70.0375 0.951277 -25.231 0.212911 -63.2336 -5.68742 5.19041 -1.78267 9.04874 -7.74745 -0.0 0.0 -0.0 0.0974523 -6.58791 -0.957946 4.81256 42.0464 -65.9026 0.537916 14.9209 -0.070441 51.4987 1.07818 6.27103 -3.91592 -26.9266 11.0816 0.0 0.0 0.0 15.5519 52.4489 -10.5838 -4.45456 0.157605 0.665303 30.5543 -31.3009 -4.95838 -24.5715 0.0 0.0 -0.0 0.0 -0.0 -4.1106 2.03254 -7.73502 -65.3337 2.80261 -9.08573 19.3112 -27.3749 2.81755 -39.9789 0.0 0.0 0.0 0.0 0.0 
1120.48 729.039 -531.391 42.989 -77.7996 50.1394 -3.85448 -0.617559 -3.23256 -3.84876 -0.410724 -3.26526 -3.81594 0.502608 -3.25239 -3.8307 -0.0170656 -3.29091 -4.58532 0.56775 7.95539 -4.38667 -4.99696 8.25195 -0.0 0.0 -0.0 7.14506 -10.23 13.6854 5.46338 -0.747769 70.2673 1.05218 -27.5287 0.257752 -63.1565 -5.67772 5.18855 -1.74904 8.75292 -7.66871 -0.0 0.0 -0.0 0.171643 -7.73852 -1.223 3.17612 42.052 -66.1796 0.452424 12.6325 -0.0500781 50.7473 1.02283 6.19232 -3.98867 -27.3181 11.2431 0.0 0.0 0.0 14.3712 52.0948 -11.2389 -3.14627 0.116695 0.46869 31.6145 -31.767 -5.12134 -22.0077 0.0 0.0 -0.0 0.0 -0.0 -1.83155 1.04425 -6.76839 -63.0053 2.53309 -8.84799 21.0017 -28.0326 3.05635 -40.0767 0.0 0.0 0.0 0.0 0.0 
1137.22 727.849 -534.491 50.8344 -79.273 57.7873 -3.55413 -0.699273 -3.17204 -3.54867 -0.496117 -3.21006 -3.512 0.38806 -3.22489 -3.52649 -0.125844 -3.24569 -5.39218 1.26296 8.77178 -5.16113 -4.23448 9.14667 -0.0 0.0 -0.0 6.63443 -10.6754 12.5841 6.98632 -0.751138 70.3246 1.19965 -30.7206 0.329556 -63.1293 -5.67429 5.18789 -1.80819 8.89924 -7.98446 -0.0 0.0 -0.0 -0.340704 -8.62646 -0.425156 2.03337 42.0408 -66.2684 0.381931 10.7138 -0.0358132 49.8577 0.958638 6.09821 -4.04007 -27.1002 11.6714 0.0 0.0 0.0 12.8418 51.514 -11.1682 -3.86782 0.139814 0.577014 29.8059 -32.0496 -4.91283 -20.1116 0.0 0.0 -0.0 0.0 -0.0 -0.724042 0.828453 -6.57875 -61.1634 2.32692 -8.65236 23.1641 -25.7994 3.29315 -40.1327 0.0 0.0 0.0 0.0 0.0 
